<svg xmlns="http://www.w3.org/2000/svg" viewBox="0 0 32 32" fill="none">
  <rect width="32" height="32" rx="8" fill="#1a0a12"/>
  <!-- 4-pointed star ✦ -->
  <path d="M16 4 C16 4 17 12 20 16 C17 16 17 16 20 16 C17 16 24 17 28 16 C24 17 20 16 20 16 C20 19 16 28 16 28 C16 28 15 20 12 16 C15 16 15 16 12 16 C15 16 8 15 4 16 C8 15 12 16 12 16 C12 13 16 4 16 4Z" fill="url(#g)"/>
  <defs>
    <linearGradient id="g" x1="4" y1="4" x2="28" y2="28" gradientUnits="userSpaceOnUse">
      <stop offset="0%" stop-color="#f9a8d4"/>
      <stop offset="100%" stop-color="#ec4899"/>
    </linearGradient>
  </defs>
</svg>
